<svg width="30" height="30" viewBox="0 0 30 30" fill="none" xmlns="http://www.w3.org/2000/svg">
<g clip-path="url(#clip0_1548_547)">
<path d="M0 15C0 11.0218 1.58035 7.20644 4.3934 4.3934C7.20644 1.58035 11.0218 0 15 0C18.9782 0 22.7936 1.58035 25.6066 4.3934C28.4196 7.20644 30 11.0218 30 15C30 18.9782 28.4196 22.7936 25.6066 25.6066C22.7936 28.4196 18.9782 30 15 30C11.0218 30 7.20644 28.4196 4.3934 25.6066C1.58035 22.7936 0 18.9782 0 15ZM9.46289 9.95508C8.74805 9.65039 7.92188 9.97852 7.61719 10.6934C7.3125 11.4082 7.64063 12.2344 8.35547 12.5391L9.05273 12.8379C10.0664 13.2715 11.1152 13.5938 12.1934 13.793V16.7285C12.1934 16.9805 12.1523 17.2324 12.0703 17.4668L10.3887 22.5117C10.1426 23.25 10.541 24.0469 11.2793 24.293C12.0176 24.5391 12.8145 24.1406 13.0605 23.4023L14.4902 19.1133C14.5664 18.8906 14.7715 18.7383 15.0059 18.7383C15.2402 18.7383 15.4512 18.8906 15.5215 19.1133L16.9512 23.4023C17.1973 24.1406 17.9941 24.5391 18.7324 24.293C19.4707 24.0469 19.8691 23.25 19.623 22.5117L17.9414 17.4668C17.8594 17.2266 17.8184 16.9805 17.8184 16.7285V13.793C18.8965 13.5879 19.9453 13.2715 20.959 12.8379L21.6562 12.5391C22.3711 12.2344 22.6992 11.4082 22.3945 10.6934C22.0898 9.97852 21.2637 9.65039 20.5488 9.95508L19.8457 10.2539C18.3164 10.9102 16.6699 11.25 15 11.25C13.3301 11.25 11.6895 10.9102 10.1543 10.2539L9.45703 9.95508H9.46289ZM15 9.375C15.6216 9.375 16.2177 9.12807 16.6573 8.68853C17.0968 8.24899 17.3438 7.65285 17.3438 7.03125C17.3438 6.40965 17.0968 5.81351 16.6573 5.37397C16.2177 4.93443 15.6216 4.6875 15 4.6875C14.3784 4.6875 13.7823 4.93443 13.3427 5.37397C12.9032 5.81351 12.6562 6.40965 12.6562 7.03125C12.6562 7.65285 12.9032 8.24899 13.3427 8.68853C13.7823 9.12807 14.3784 9.375 15 9.375Z" fill="black"/>
</g>
<defs>
<clipPath id="clip0_1548_547">
<rect width="30" height="30" fill="white"/>
</clipPath>
</defs>
</svg>
