<svg width="30" height="30" viewBox="0 0 30 30" fill="none" xmlns="http://www.w3.org/2000/svg">
<g clip-path="url(#clip0_1548_609)">
<path d="M14.2617 0.152344L1.13672 5.77734C0.316406 6.12891 -0.140625 7.00781 0.0410156 7.875C0.222656 8.74219 0.984375 9.375 1.875 9.375V9.84375C1.875 10.623 2.50195 11.25 3.28125 11.25H26.7188C27.498 11.25 28.125 10.623 28.125 9.84375V9.375C29.0156 9.375 29.7832 8.74805 29.959 7.875C30.1348 7.00195 29.6777 6.12305 28.8633 5.77734L15.7383 0.152344C15.2695 -0.046875 14.7305 -0.046875 14.2617 0.152344ZM7.5 13.125H3.75V24.627C3.71484 24.6445 3.67969 24.668 3.64453 24.6914L0.832031 26.5664C0.146484 27.0234 -0.164063 27.8789 0.0761718 28.6699C0.316406 29.4609 1.04883 30 1.875 30H28.125C28.9512 30 29.6777 29.4609 29.918 28.6699C30.1582 27.8789 29.8535 27.0234 29.1621 26.5664L26.3496 24.6914C26.3145 24.668 26.2793 24.6504 26.2441 24.627L26.25 13.125H22.5V24.375H20.1562V13.125H16.4062V24.375H13.5938V13.125H9.84375V24.375H7.5V13.125ZM15 3.75C15.4973 3.75 15.9742 3.94754 16.3258 4.29917C16.6775 4.6508 16.875 5.12772 16.875 5.625C16.875 6.12228 16.6775 6.59919 16.3258 6.95083C15.9742 7.30246 15.4973 7.5 15 7.5C14.5027 7.5 14.0258 7.30246 13.6742 6.95083C13.3225 6.59919 13.125 6.12228 13.125 5.625C13.125 5.12772 13.3225 4.6508 13.6742 4.29917C14.0258 3.94754 14.5027 3.75 15 3.75Z" fill="black"/>
</g>
<defs>
<clipPath id="clip0_1548_609">
<rect width="30" height="30" fill="white"/>
</clipPath>
</defs>
</svg>
