<svg width="30" height="30" viewBox="0 0 30 30" fill="none" xmlns="http://www.w3.org/2000/svg">
<g clip-path="url(#clip0_1548_562)">
<path d="M9.94336 0.0527564C8.60742 -0.0409936 7.48828 0.873069 7.16016 2.08596L6.46875 4.68752C6.49805 4.68752 6.5332 4.68752 6.5625 4.68752C16.916 4.68752 25.3125 13.084 25.3125 23.4375C25.3125 23.4668 25.3125 23.502 25.3125 23.5313L27.9141 22.8399C29.1328 22.5176 30.041 21.3926 29.9473 20.0567C29.209 9.34573 20.6543 0.791038 9.94336 0.0527564ZM23.4258 24.0352C23.4316 23.836 23.4375 23.6367 23.4375 23.4375C23.4375 14.1153 15.8848 6.56252 6.5625 6.56252C6.36328 6.56252 6.16406 6.56838 5.96484 6.57424L0.0292975 28.8223C-0.0585932 29.1446 0.0351568 29.4903 0.269532 29.7246C0.503907 29.959 0.84961 30.0528 1.17188 29.9649L23.4258 24.0352ZM10.3125 12.1875C10.8098 12.1875 11.2867 12.3851 11.6383 12.7367C11.99 13.0883 12.1875 13.5652 12.1875 14.0625C12.1875 14.5598 11.99 15.0367 11.6383 15.3883C11.2867 15.74 10.8098 15.9375 10.3125 15.9375C9.81522 15.9375 9.33831 15.74 8.98668 15.3883C8.63505 15.0367 8.4375 14.5598 8.4375 14.0625C8.4375 13.5652 8.63505 13.0883 8.98668 12.7367C9.33831 12.3851 9.81522 12.1875 10.3125 12.1875ZM14.0625 19.6875C14.0625 19.1902 14.26 18.7133 14.6117 18.3617C14.9633 18.0101 15.4402 17.8125 15.9375 17.8125C16.4348 17.8125 16.9117 18.0101 17.2633 18.3617C17.615 18.7133 17.8125 19.1902 17.8125 19.6875C17.8125 20.1848 17.615 20.6617 17.2633 21.0133C16.9117 21.365 16.4348 21.5625 15.9375 21.5625C15.4402 21.5625 14.9633 21.365 14.6117 21.0133C14.26 20.6617 14.0625 20.1848 14.0625 19.6875ZM5.625 22.5C5.625 22.0027 5.82254 21.5258 6.17418 21.1742C6.52581 20.8226 7.00272 20.625 7.5 20.625C7.99728 20.625 8.4742 20.8226 8.82583 21.1742C9.17746 21.5258 9.375 22.0027 9.375 22.5C9.375 22.9973 9.17746 23.4742 8.82583 23.8258C8.4742 24.1775 7.99728 24.375 7.5 24.375C7.00272 24.375 6.52581 24.1775 6.17418 23.8258C5.82254 23.4742 5.625 22.9973 5.625 22.5Z" fill="black"/>
</g>
<defs>
<clipPath id="clip0_1548_562">
<rect width="30" height="30" fill="white"/>
</clipPath>
</defs>
</svg>
