<svg width="35" height="28" viewBox="0 0 35 28" fill="none" xmlns="http://www.w3.org/2000/svg">
<g clip-path="url(#clip0_1548_601)">
<path d="M2.0125 10.5H32.982C34.0922 10.5 34.9945 9.59766 34.9945 8.4875C34.9945 8.08828 34.8742 7.7 34.6555 7.37188L30.5266 1.17031C30.0398 0.4375 29.225 0 28.3445 0H6.65547C5.78047 0 4.96016 0.4375 4.47344 1.17031L0.339062 7.36641C0.120312 7.7 0 8.08828 0 8.48203C0 9.59766 0.902344 10.5 2.0125 10.5ZM3.5 12.25V21V25.375C3.5 26.8242 4.67578 28 6.125 28H18.375C19.8242 28 21 26.8242 21 25.375V21V12.25H17.5V21H7V12.25H3.5ZM28 12.25V26.25C28 27.218 28.782 28 29.75 28C30.718 28 31.5 27.218 31.5 26.25V12.25H28Z" fill="black"/>
</g>
<defs>
<clipPath id="clip0_1548_601">
<rect width="35" height="28" fill="white"/>
</clipPath>
</defs>
</svg>
